<?xml version="1.0" encoding="utf-8" standalone="no"?>
<!DOCTYPE svg PUBLIC "-//W3C//DTD SVG 1.1//EN"
  "http://www.w3.org/Graphics/SVG/1.1/DTD/svg11.dtd">
<svg xmlns:xlink="http://www.w3.org/1999/xlink" width="568.8275pt" height="424.873125pt" viewBox="0 0 568.8275 424.873125" xmlns="http://www.w3.org/2000/svg" version="1.1">
 <metadata>
  <rdf:RDF xmlns:dc="http://purl.org/dc/elements/1.1/" xmlns:cc="http://creativecommons.org/ns#" xmlns:rdf="http://www.w3.org/1999/02/22-rdf-syntax-ns#">
   <cc:Work>
    <dc:type rdf:resource="http://purl.org/dc/dcmitype/StillImage"/>
    <dc:date>2025-12-28T23:18:08.146320</dc:date>
    <dc:format>image/svg+xml</dc:format>
    <dc:creator>
     <cc:Agent>
      <dc:title>Matplotlib v3.9.1, https://matplotlib.org/</dc:title>
     </cc:Agent>
    </dc:creator>
   </cc:Work>
  </rdf:RDF>
 </metadata>
 <defs>
  <style type="text/css">*{stroke-linejoin: round; stroke-linecap: butt}</style>
 </defs>
 <g id="figure_1">
  <g id="patch_1">
   <path d="M 0 424.873125 
L 568.8275 424.873125 
L 568.8275 0 
L 0 0 
z
" style="fill: #ffffff"/>
  </g>
  <g id="axes_1">
   <g id="patch_2">
    <path d="M 64.5325 387.205 
L 561.6275 387.205 
L 561.6275 21.935625 
L 64.5325 21.935625 
z
" style="fill: #eaeaf2"/>
   </g>
   <g id="matplotlib.axis_1">
    <g id="xtick_1">
     <g id="line2d_1">
      <path d="M 125.517387 387.205 
L 125.517387 21.935625 
" clip-path="url(#p76f28cb784)" style="fill: none; stroke: #ffffff; stroke-linecap: round"/>
     </g>
     <g id="line2d_2"/>
     <g id="text_1">
      <!-- −5000 -->
      <g style="fill: #262626" transform="translate(111.475199 401.362812) scale(0.1 -0.1)">
       <defs>
        <path id="ArialMT-2212" d="M 3381 1997 
L 356 1997 
L 356 2522 
L 3381 2522 
L 3381 1997 
z
" transform="scale(0.015625)"/>
        <path id="ArialMT-35" d="M 266 1200 
L 856 1250 
Q 922 819 1161 601 
Q 1400 384 1738 384 
Q 2144 384 2425 690 
Q 2706 997 2706 1503 
Q 2706 1984 2436 2262 
Q 2166 2541 1728 2541 
Q 1456 2541 1237 2417 
Q 1019 2294 894 2097 
L 366 2166 
L 809 4519 
L 3088 4519 
L 3088 3981 
L 1259 3981 
L 1013 2750 
Q 1425 3038 1878 3038 
Q 2478 3038 2890 2622 
Q 3303 2206 3303 1553 
Q 3303 931 2941 478 
Q 2500 -78 1738 -78 
Q 1113 -78 717 272 
Q 322 622 266 1200 
z
" transform="scale(0.015625)"/>
        <path id="ArialMT-30" d="M 266 2259 
Q 266 3072 433 3567 
Q 600 4063 929 4331 
Q 1259 4600 1759 4600 
Q 2128 4600 2406 4451 
Q 2684 4303 2865 4023 
Q 3047 3744 3150 3342 
Q 3253 2941 3253 2259 
Q 3253 1453 3087 958 
Q 2922 463 2592 192 
Q 2263 -78 1759 -78 
Q 1097 -78 719 397 
Q 266 969 266 2259 
z
M 844 2259 
Q 844 1131 1108 757 
Q 1372 384 1759 384 
Q 2147 384 2411 759 
Q 2675 1134 2675 2259 
Q 2675 3391 2411 3762 
Q 2147 4134 1753 4134 
Q 1366 4134 1134 3806 
Q 844 3388 844 2259 
z
" transform="scale(0.015625)"/>
       </defs>
       <use xlink:href="#ArialMT-2212"/>
       <use xlink:href="#ArialMT-35" x="58.398438"/>
       <use xlink:href="#ArialMT-30" x="114.013672"/>
       <use xlink:href="#ArialMT-30" x="169.628906"/>
       <use xlink:href="#ArialMT-30" x="225.244141"/>
      </g>
     </g>
    </g>
    <g id="xtick_2">
     <g id="line2d_3">
      <path d="M 200.103864 387.205 
L 200.103864 21.935625 
" clip-path="url(#p76f28cb784)" style="fill: none; stroke: #ffffff; stroke-linecap: round"/>
     </g>
     <g id="line2d_4"/>
     <g id="text_2">
      <!-- 0 -->
      <g style="fill: #262626" transform="translate(197.323395 401.362812) scale(0.1 -0.1)">
       <use xlink:href="#ArialMT-30"/>
      </g>
     </g>
    </g>
    <g id="xtick_3">
     <g id="line2d_5">
      <path d="M 274.69034 387.205 
L 274.69034 21.935625 
" clip-path="url(#p76f28cb784)" style="fill: none; stroke: #ffffff; stroke-linecap: round"/>
     </g>
     <g id="line2d_6"/>
     <g id="text_3">
      <!-- 5000 -->
      <g style="fill: #262626" transform="translate(263.568465 401.362812) scale(0.1 -0.1)">
       <use xlink:href="#ArialMT-35"/>
       <use xlink:href="#ArialMT-30" x="55.615234"/>
       <use xlink:href="#ArialMT-30" x="111.230469"/>
       <use xlink:href="#ArialMT-30" x="166.845703"/>
      </g>
     </g>
    </g>
    <g id="xtick_4">
     <g id="line2d_7">
      <path d="M 349.276817 387.205 
L 349.276817 21.935625 
" clip-path="url(#p76f28cb784)" style="fill: none; stroke: #ffffff; stroke-linecap: round"/>
     </g>
     <g id="line2d_8"/>
     <g id="text_4">
      <!-- 10000 -->
      <g style="fill: #262626" transform="translate(335.374473 401.362812) scale(0.1 -0.1)">
       <defs>
        <path id="ArialMT-31" d="M 2384 0 
L 1822 0 
L 1822 3584 
Q 1619 3391 1289 3197 
Q 959 3003 697 2906 
L 697 3450 
Q 1169 3672 1522 3987 
Q 1875 4303 2022 4600 
L 2384 4600 
L 2384 0 
z
" transform="scale(0.015625)"/>
       </defs>
       <use xlink:href="#ArialMT-31"/>
       <use xlink:href="#ArialMT-30" x="55.615234"/>
       <use xlink:href="#ArialMT-30" x="111.230469"/>
       <use xlink:href="#ArialMT-30" x="166.845703"/>
       <use xlink:href="#ArialMT-30" x="222.460938"/>
      </g>
     </g>
    </g>
    <g id="xtick_5">
     <g id="line2d_9">
      <path d="M 423.863294 387.205 
L 423.863294 21.935625 
" clip-path="url(#p76f28cb784)" style="fill: none; stroke: #ffffff; stroke-linecap: round"/>
     </g>
     <g id="line2d_10"/>
     <g id="text_5">
      <!-- 15000 -->
      <g style="fill: #262626" transform="translate(409.96095 401.362812) scale(0.1 -0.1)">
       <use xlink:href="#ArialMT-31"/>
       <use xlink:href="#ArialMT-35" x="55.615234"/>
       <use xlink:href="#ArialMT-30" x="111.230469"/>
       <use xlink:href="#ArialMT-30" x="166.845703"/>
       <use xlink:href="#ArialMT-30" x="222.460938"/>
      </g>
     </g>
    </g>
    <g id="xtick_6">
     <g id="line2d_11">
      <path d="M 498.449771 387.205 
L 498.449771 21.935625 
" clip-path="url(#p76f28cb784)" style="fill: none; stroke: #ffffff; stroke-linecap: round"/>
     </g>
     <g id="line2d_12"/>
     <g id="text_6">
      <!-- 20000 -->
      <g style="fill: #262626" transform="translate(484.547427 401.362812) scale(0.1 -0.1)">
       <defs>
        <path id="ArialMT-32" d="M 3222 541 
L 3222 0 
L 194 0 
Q 188 203 259 391 
Q 375 700 629 1000 
Q 884 1300 1366 1694 
Q 2113 2306 2375 2664 
Q 2638 3022 2638 3341 
Q 2638 3675 2398 3904 
Q 2159 4134 1775 4134 
Q 1369 4134 1125 3890 
Q 881 3647 878 3216 
L 300 3275 
Q 359 3922 746 4261 
Q 1134 4600 1788 4600 
Q 2447 4600 2831 4234 
Q 3216 3869 3216 3328 
Q 3216 3053 3103 2787 
Q 2991 2522 2730 2228 
Q 2469 1934 1863 1422 
Q 1356 997 1212 845 
Q 1069 694 975 541 
L 3222 541 
z
" transform="scale(0.015625)"/>
       </defs>
       <use xlink:href="#ArialMT-32"/>
       <use xlink:href="#ArialMT-30" x="55.615234"/>
       <use xlink:href="#ArialMT-30" x="111.230469"/>
       <use xlink:href="#ArialMT-30" x="166.845703"/>
       <use xlink:href="#ArialMT-30" x="222.460938"/>
      </g>
     </g>
    </g>
    <g id="text_7">
     <!-- Yield (kg/ha) -->
     <g style="fill: #262626" transform="translate(282.412344 415.357969) scale(0.11 -0.11)">
      <defs>
       <path id="ArialMT-59" d="M 1784 0 
L 1784 1941 
L 19 4581 
L 756 4581 
L 1659 3200 
Q 1909 2813 2125 2425 
Q 2331 2784 2625 3234 
L 3513 4581 
L 4219 4581 
L 2391 1941 
L 2391 0 
L 1784 0 
z
" transform="scale(0.015625)"/>
       <path id="ArialMT-69" d="M 425 3934 
L 425 4581 
L 988 4581 
L 988 3934 
L 425 3934 
z
M 425 0 
L 425 3319 
L 988 3319 
L 988 0 
L 425 0 
z
" transform="scale(0.015625)"/>
       <path id="ArialMT-65" d="M 2694 1069 
L 3275 997 
Q 3138 488 2766 206 
Q 2394 -75 1816 -75 
Q 1088 -75 661 373 
Q 234 822 234 1631 
Q 234 2469 665 2931 
Q 1097 3394 1784 3394 
Q 2450 3394 2872 2941 
Q 3294 2488 3294 1666 
Q 3294 1616 3291 1516 
L 816 1516 
Q 847 969 1125 678 
Q 1403 388 1819 388 
Q 2128 388 2347 550 
Q 2566 713 2694 1069 
z
M 847 1978 
L 2700 1978 
Q 2663 2397 2488 2606 
Q 2219 2931 1791 2931 
Q 1403 2931 1139 2672 
Q 875 2413 847 1978 
z
" transform="scale(0.015625)"/>
       <path id="ArialMT-6c" d="M 409 0 
L 409 4581 
L 972 4581 
L 972 0 
L 409 0 
z
" transform="scale(0.015625)"/>
       <path id="ArialMT-64" d="M 2575 0 
L 2575 419 
Q 2259 -75 1647 -75 
Q 1250 -75 917 144 
Q 584 363 401 755 
Q 219 1147 219 1656 
Q 219 2153 384 2558 
Q 550 2963 881 3178 
Q 1213 3394 1622 3394 
Q 1922 3394 2156 3267 
Q 2391 3141 2538 2938 
L 2538 4581 
L 3097 4581 
L 3097 0 
L 2575 0 
z
M 797 1656 
Q 797 1019 1065 703 
Q 1334 388 1700 388 
Q 2069 388 2326 689 
Q 2584 991 2584 1609 
Q 2584 2291 2321 2609 
Q 2059 2928 1675 2928 
Q 1300 2928 1048 2622 
Q 797 2316 797 1656 
z
" transform="scale(0.015625)"/>
       <path id="ArialMT-20" transform="scale(0.015625)"/>
       <path id="ArialMT-28" d="M 1497 -1347 
Q 1031 -759 709 28 
Q 388 816 388 1659 
Q 388 2403 628 3084 
Q 909 3875 1497 4659 
L 1900 4659 
Q 1522 4009 1400 3731 
Q 1209 3300 1100 2831 
Q 966 2247 966 1656 
Q 966 153 1900 -1347 
L 1497 -1347 
z
" transform="scale(0.015625)"/>
       <path id="ArialMT-6b" d="M 425 0 
L 425 4581 
L 988 4581 
L 988 1969 
L 2319 3319 
L 3047 3319 
L 1778 2088 
L 3175 0 
L 2481 0 
L 1384 1697 
L 988 1316 
L 988 0 
L 425 0 
z
" transform="scale(0.015625)"/>
       <path id="ArialMT-67" d="M 319 -275 
L 866 -356 
Q 900 -609 1056 -725 
Q 1266 -881 1628 -881 
Q 2019 -881 2231 -725 
Q 2444 -569 2519 -288 
Q 2563 -116 2559 434 
Q 2191 0 1641 0 
Q 956 0 581 494 
Q 206 988 206 1678 
Q 206 2153 378 2554 
Q 550 2956 876 3175 
Q 1203 3394 1644 3394 
Q 2231 3394 2613 2919 
L 2613 3319 
L 3131 3319 
L 3131 450 
Q 3131 -325 2973 -648 
Q 2816 -972 2473 -1159 
Q 2131 -1347 1631 -1347 
Q 1038 -1347 672 -1080 
Q 306 -813 319 -275 
z
M 784 1719 
Q 784 1066 1043 766 
Q 1303 466 1694 466 
Q 2081 466 2343 764 
Q 2606 1063 2606 1700 
Q 2606 2309 2336 2618 
Q 2066 2928 1684 2928 
Q 1309 2928 1046 2623 
Q 784 2319 784 1719 
z
" transform="scale(0.015625)"/>
       <path id="ArialMT-2f" d="M 0 -78 
L 1328 4659 
L 1778 4659 
L 453 -78 
L 0 -78 
z
" transform="scale(0.015625)"/>
       <path id="ArialMT-68" d="M 422 0 
L 422 4581 
L 984 4581 
L 984 2938 
Q 1378 3394 1978 3394 
Q 2347 3394 2619 3248 
Q 2891 3103 3008 2847 
Q 3125 2591 3125 2103 
L 3125 0 
L 2563 0 
L 2563 2103 
Q 2563 2525 2380 2717 
Q 2197 2909 1863 2909 
Q 1613 2909 1392 2779 
Q 1172 2650 1078 2428 
Q 984 2206 984 1816 
L 984 0 
L 422 0 
z
" transform="scale(0.015625)"/>
       <path id="ArialMT-61" d="M 2588 409 
Q 2275 144 1986 34 
Q 1697 -75 1366 -75 
Q 819 -75 525 192 
Q 231 459 231 875 
Q 231 1119 342 1320 
Q 453 1522 633 1644 
Q 813 1766 1038 1828 
Q 1203 1872 1538 1913 
Q 2219 1994 2541 2106 
Q 2544 2222 2544 2253 
Q 2544 2597 2384 2738 
Q 2169 2928 1744 2928 
Q 1347 2928 1158 2789 
Q 969 2650 878 2297 
L 328 2372 
Q 403 2725 575 2942 
Q 747 3159 1072 3276 
Q 1397 3394 1825 3394 
Q 2250 3394 2515 3294 
Q 2781 3194 2906 3042 
Q 3031 2891 3081 2659 
Q 3109 2516 3109 2141 
L 3109 1391 
Q 3109 606 3145 398 
Q 3181 191 3288 0 
L 2700 0 
Q 2613 175 2588 409 
z
M 2541 1666 
Q 2234 1541 1622 1453 
Q 1275 1403 1131 1340 
Q 988 1278 909 1158 
Q 831 1038 831 891 
Q 831 666 1001 516 
Q 1172 366 1500 366 
Q 1825 366 2078 508 
Q 2331 650 2450 897 
Q 2541 1088 2541 1459 
L 2541 1666 
z
" transform="scale(0.015625)"/>
       <path id="ArialMT-29" d="M 791 -1347 
L 388 -1347 
Q 1322 153 1322 1656 
Q 1322 2244 1188 2822 
Q 1081 3291 891 3722 
Q 769 4003 388 4659 
L 791 4659 
Q 1378 3875 1659 3084 
Q 1900 2403 1900 1659 
Q 1900 816 1576 28 
Q 1253 -759 791 -1347 
z
" transform="scale(0.015625)"/>
      </defs>
      <use xlink:href="#ArialMT-59"/>
      <use xlink:href="#ArialMT-69" x="62.949219"/>
      <use xlink:href="#ArialMT-65" x="85.166016"/>
      <use xlink:href="#ArialMT-6c" x="140.78125"/>
      <use xlink:href="#ArialMT-64" x="162.998047"/>
      <use xlink:href="#ArialMT-20" x="218.613281"/>
      <use xlink:href="#ArialMT-28" x="246.396484"/>
      <use xlink:href="#ArialMT-6b" x="279.697266"/>
      <use xlink:href="#ArialMT-67" x="329.697266"/>
      <use xlink:href="#ArialMT-2f" x="385.3125"/>
      <use xlink:href="#ArialMT-68" x="413.095703"/>
      <use xlink:href="#ArialMT-61" x="468.710938"/>
      <use xlink:href="#ArialMT-29" x="524.326172"/>
     </g>
    </g>
   </g>
   <g id="matplotlib.axis_2">
    <g id="ytick_1">
     <g id="line2d_13">
      <path d="M 64.5325 387.205 
L 561.6275 387.205 
" clip-path="url(#p76f28cb784)" style="fill: none; stroke: #ffffff; stroke-linecap: round"/>
     </g>
     <g id="line2d_14"/>
     <g id="text_8">
      <!-- 0.00000 -->
      <g style="fill: #262626" transform="translate(21.38875 390.783906) scale(0.1 -0.1)">
       <defs>
        <path id="ArialMT-2e" d="M 581 0 
L 581 641 
L 1222 641 
L 1222 0 
L 581 0 
z
" transform="scale(0.015625)"/>
       </defs>
       <use xlink:href="#ArialMT-30"/>
       <use xlink:href="#ArialMT-2e" x="55.615234"/>
       <use xlink:href="#ArialMT-30" x="83.398438"/>
       <use xlink:href="#ArialMT-30" x="139.013672"/>
       <use xlink:href="#ArialMT-30" x="194.628906"/>
       <use xlink:href="#ArialMT-30" x="250.244141"/>
       <use xlink:href="#ArialMT-30" x="305.859375"/>
      </g>
     </g>
    </g>
    <g id="ytick_2">
     <g id="line2d_15">
      <path d="M 64.5325 313.184365 
L 561.6275 313.184365 
" clip-path="url(#p76f28cb784)" style="fill: none; stroke: #ffffff; stroke-linecap: round"/>
     </g>
     <g id="line2d_16"/>
     <g id="text_9">
      <!-- 0.00005 -->
      <g style="fill: #262626" transform="translate(21.38875 316.763271) scale(0.1 -0.1)">
       <use xlink:href="#ArialMT-30"/>
       <use xlink:href="#ArialMT-2e" x="55.615234"/>
       <use xlink:href="#ArialMT-30" x="83.398438"/>
       <use xlink:href="#ArialMT-30" x="139.013672"/>
       <use xlink:href="#ArialMT-30" x="194.628906"/>
       <use xlink:href="#ArialMT-30" x="250.244141"/>
       <use xlink:href="#ArialMT-35" x="305.859375"/>
      </g>
     </g>
    </g>
    <g id="ytick_3">
     <g id="line2d_17">
      <path d="M 64.5325 239.16373 
L 561.6275 239.16373 
" clip-path="url(#p76f28cb784)" style="fill: none; stroke: #ffffff; stroke-linecap: round"/>
     </g>
     <g id="line2d_18"/>
     <g id="text_10">
      <!-- 0.00010 -->
      <g style="fill: #262626" transform="translate(21.38875 242.742637) scale(0.1 -0.1)">
       <use xlink:href="#ArialMT-30"/>
       <use xlink:href="#ArialMT-2e" x="55.615234"/>
       <use xlink:href="#ArialMT-30" x="83.398438"/>
       <use xlink:href="#ArialMT-30" x="139.013672"/>
       <use xlink:href="#ArialMT-30" x="194.628906"/>
       <use xlink:href="#ArialMT-31" x="250.244141"/>
       <use xlink:href="#ArialMT-30" x="305.859375"/>
      </g>
     </g>
    </g>
    <g id="ytick_4">
     <g id="line2d_19">
      <path d="M 64.5325 165.143096 
L 561.6275 165.143096 
" clip-path="url(#p76f28cb784)" style="fill: none; stroke: #ffffff; stroke-linecap: round"/>
     </g>
     <g id="line2d_20"/>
     <g id="text_11">
      <!-- 0.00015 -->
      <g style="fill: #262626" transform="translate(21.38875 168.722002) scale(0.1 -0.1)">
       <use xlink:href="#ArialMT-30"/>
       <use xlink:href="#ArialMT-2e" x="55.615234"/>
       <use xlink:href="#ArialMT-30" x="83.398438"/>
       <use xlink:href="#ArialMT-30" x="139.013672"/>
       <use xlink:href="#ArialMT-30" x="194.628906"/>
       <use xlink:href="#ArialMT-31" x="250.244141"/>
       <use xlink:href="#ArialMT-35" x="305.859375"/>
      </g>
     </g>
    </g>
    <g id="ytick_5">
     <g id="line2d_21">
      <path d="M 64.5325 91.122461 
L 561.6275 91.122461 
" clip-path="url(#p76f28cb784)" style="fill: none; stroke: #ffffff; stroke-linecap: round"/>
     </g>
     <g id="line2d_22"/>
     <g id="text_12">
      <!-- 0.00020 -->
      <g style="fill: #262626" transform="translate(21.38875 94.701367) scale(0.1 -0.1)">
       <use xlink:href="#ArialMT-30"/>
       <use xlink:href="#ArialMT-2e" x="55.615234"/>
       <use xlink:href="#ArialMT-30" x="83.398438"/>
       <use xlink:href="#ArialMT-30" x="139.013672"/>
       <use xlink:href="#ArialMT-30" x="194.628906"/>
       <use xlink:href="#ArialMT-32" x="250.244141"/>
       <use xlink:href="#ArialMT-30" x="305.859375"/>
      </g>
     </g>
    </g>
    <g id="text_13">
     <!-- Density -->
     <g style="fill: #262626" transform="translate(15.073594 222.909375) rotate(-90) scale(0.11 -0.11)">
      <defs>
       <path id="ArialMT-44" d="M 494 0 
L 494 4581 
L 2072 4581 
Q 2606 4581 2888 4516 
Q 3281 4425 3559 4188 
Q 3922 3881 4101 3404 
Q 4281 2928 4281 2316 
Q 4281 1794 4159 1391 
Q 4038 988 3847 723 
Q 3656 459 3429 307 
Q 3203 156 2883 78 
Q 2563 0 2147 0 
L 494 0 
z
M 1100 541 
L 2078 541 
Q 2531 541 2789 625 
Q 3047 709 3200 863 
Q 3416 1078 3536 1442 
Q 3656 1806 3656 2325 
Q 3656 3044 3420 3430 
Q 3184 3816 2847 3947 
Q 2603 4041 2063 4041 
L 1100 4041 
L 1100 541 
z
" transform="scale(0.015625)"/>
       <path id="ArialMT-6e" d="M 422 0 
L 422 3319 
L 928 3319 
L 928 2847 
Q 1294 3394 1984 3394 
Q 2284 3394 2536 3286 
Q 2788 3178 2913 3003 
Q 3038 2828 3088 2588 
Q 3119 2431 3119 2041 
L 3119 0 
L 2556 0 
L 2556 2019 
Q 2556 2363 2490 2533 
Q 2425 2703 2258 2804 
Q 2091 2906 1866 2906 
Q 1506 2906 1245 2678 
Q 984 2450 984 1813 
L 984 0 
L 422 0 
z
" transform="scale(0.015625)"/>
       <path id="ArialMT-73" d="M 197 991 
L 753 1078 
Q 800 744 1014 566 
Q 1228 388 1613 388 
Q 2000 388 2187 545 
Q 2375 703 2375 916 
Q 2375 1106 2209 1216 
Q 2094 1291 1634 1406 
Q 1016 1563 777 1677 
Q 538 1791 414 1992 
Q 291 2194 291 2438 
Q 291 2659 392 2848 
Q 494 3038 669 3163 
Q 800 3259 1026 3326 
Q 1253 3394 1513 3394 
Q 1903 3394 2198 3281 
Q 2494 3169 2634 2976 
Q 2775 2784 2828 2463 
L 2278 2388 
Q 2241 2644 2061 2787 
Q 1881 2931 1553 2931 
Q 1166 2931 1000 2803 
Q 834 2675 834 2503 
Q 834 2394 903 2306 
Q 972 2216 1119 2156 
Q 1203 2125 1616 2013 
Q 2213 1853 2448 1751 
Q 2684 1650 2818 1456 
Q 2953 1263 2953 975 
Q 2953 694 2789 445 
Q 2625 197 2315 61 
Q 2006 -75 1616 -75 
Q 969 -75 630 194 
Q 291 463 197 991 
z
" transform="scale(0.015625)"/>
       <path id="ArialMT-74" d="M 1650 503 
L 1731 6 
Q 1494 -44 1306 -44 
Q 1000 -44 831 53 
Q 663 150 594 308 
Q 525 466 525 972 
L 525 2881 
L 113 2881 
L 113 3319 
L 525 3319 
L 525 4141 
L 1084 4478 
L 1084 3319 
L 1650 3319 
L 1650 2881 
L 1084 2881 
L 1084 941 
Q 1084 700 1114 631 
Q 1144 563 1211 522 
Q 1278 481 1403 481 
Q 1497 481 1650 503 
z
" transform="scale(0.015625)"/>
       <path id="ArialMT-79" d="M 397 -1278 
L 334 -750 
Q 519 -800 656 -800 
Q 844 -800 956 -737 
Q 1069 -675 1141 -563 
Q 1194 -478 1313 -144 
Q 1328 -97 1363 -6 
L 103 3319 
L 709 3319 
L 1400 1397 
Q 1534 1031 1641 628 
Q 1738 1016 1872 1384 
L 2581 3319 
L 3144 3319 
L 1881 -56 
Q 1678 -603 1566 -809 
Q 1416 -1088 1222 -1217 
Q 1028 -1347 759 -1347 
Q 597 -1347 397 -1278 
z
" transform="scale(0.015625)"/>
      </defs>
      <use xlink:href="#ArialMT-44"/>
      <use xlink:href="#ArialMT-65" x="72.216797"/>
      <use xlink:href="#ArialMT-6e" x="127.832031"/>
      <use xlink:href="#ArialMT-73" x="183.447266"/>
      <use xlink:href="#ArialMT-69" x="233.447266"/>
      <use xlink:href="#ArialMT-74" x="255.664062"/>
      <use xlink:href="#ArialMT-79" x="283.447266"/>
     </g>
    </g>
   </g>
   <g id="patch_3">
    <path d="M 200.103864 387.205 
L 207.635606 387.205 
L 207.635606 381.683171 
L 200.103864 381.683171 
z
" clip-path="url(#p76f28cb784)" style="fill: #f77189; opacity: 0.7"/>
   </g>
   <g id="patch_4">
    <path d="M 207.635606 387.205 
L 215.167348 387.205 
L 215.167348 387.205 
L 207.635606 387.205 
z
" clip-path="url(#p76f28cb784)" style="fill: #f77189; opacity: 0.7"/>
   </g>
   <g id="patch_5">
    <path d="M 215.167348 387.205 
L 222.69909 387.205 
L 222.69909 359.595856 
L 215.167348 359.595856 
z
" clip-path="url(#p76f28cb784)" style="fill: #f77189; opacity: 0.7"/>
   </g>
   <g id="patch_6">
    <path d="M 222.69909 387.205 
L 230.230833 387.205 
L 230.230833 370.639515 
L 222.69909 370.639515 
z
" clip-path="url(#p76f28cb784)" style="fill: #f77189; opacity: 0.7"/>
   </g>
   <g id="patch_7">
    <path d="M 230.230833 387.205 
L 237.762576 387.205 
L 237.762576 254.681124 
L 230.230833 254.681124 
z
" clip-path="url(#p76f28cb784)" style="fill: #f77189; opacity: 0.7"/>
   </g>
   <g id="patch_8">
    <path d="M 237.762576 387.205 
L 245.294317 387.205 
L 245.294317 260.202921 
L 237.762576 260.202921 
z
" clip-path="url(#p76f28cb784)" style="fill: #f77189; opacity: 0.7"/>
   </g>
   <g id="patch_9">
    <path d="M 245.294317 387.205 
L 252.826061 387.205 
L 252.826061 271.246636 
L 245.294317 271.246636 
z
" clip-path="url(#p76f28cb784)" style="fill: #f77189; opacity: 0.7"/>
   </g>
   <g id="patch_10">
    <path d="M 252.826061 387.205 
L 260.357802 387.205 
L 260.357802 337.508534 
L 252.826061 337.508534 
z
" clip-path="url(#p76f28cb784)" style="fill: #f77189; opacity: 0.7"/>
   </g>
   <g id="patch_11">
    <path d="M 260.357802 387.205 
L 267.889547 387.205 
L 267.889547 337.508558 
L 260.357802 337.508558 
z
" clip-path="url(#p76f28cb784)" style="fill: #f77189; opacity: 0.7"/>
   </g>
   <g id="patch_12">
    <path d="M 267.889547 387.205 
L 275.421288 387.205 
L 275.421288 354.074023 
L 267.889547 354.074023 
z
" clip-path="url(#p76f28cb784)" style="fill: #f77189; opacity: 0.7"/>
   </g>
   <g id="patch_13">
    <path d="M 275.421288 387.205 
L 282.953029 387.205 
L 282.953029 359.595852 
L 275.421288 359.595852 
z
" clip-path="url(#p76f28cb784)" style="fill: #f77189; opacity: 0.7"/>
   </g>
   <g id="patch_14">
    <path d="M 282.953029 387.205 
L 290.48477 387.205 
L 290.48477 348.552193 
L 282.953029 348.552193 
z
" clip-path="url(#p76f28cb784)" style="fill: #f77189; opacity: 0.7"/>
   </g>
   <g id="patch_15">
    <path d="M 290.48477 387.205 
L 298.016518 387.205 
L 298.016518 304.377638 
L 290.48477 304.377638 
z
" clip-path="url(#p76f28cb784)" style="fill: #f77189; opacity: 0.7"/>
   </g>
   <g id="patch_16">
    <path d="M 298.016518 387.205 
L 305.548259 387.205 
L 305.548259 337.508534 
L 298.016518 337.508534 
z
" clip-path="url(#p76f28cb784)" style="fill: #f77189; opacity: 0.7"/>
   </g>
   <g id="patch_17">
    <path d="M 305.548259 387.205 
L 313.08 387.205 
L 313.08 326.464875 
L 305.548259 326.464875 
z
" clip-path="url(#p76f28cb784)" style="fill: #f77189; opacity: 0.7"/>
   </g>
   <g id="patch_18">
    <path d="M 313.08 387.205 
L 320.611741 387.205 
L 320.611741 282.290239 
L 313.08 282.290239 
z
" clip-path="url(#p76f28cb784)" style="fill: #f77189; opacity: 0.7"/>
   </g>
   <g id="patch_19">
    <path d="M 320.611741 387.205 
L 328.143482 387.205 
L 328.143482 331.986705 
L 320.611741 331.986705 
z
" clip-path="url(#p76f28cb784)" style="fill: #f77189; opacity: 0.7"/>
   </g>
   <g id="patch_20">
    <path d="M 328.143482 387.205 
L 335.67523 387.205 
L 335.67523 315.421286 
L 328.143482 315.421286 
z
" clip-path="url(#p76f28cb784)" style="fill: #f77189; opacity: 0.7"/>
   </g>
   <g id="patch_21">
    <path d="M 335.67523 387.205 
L 343.206964 387.205 
L 343.206964 282.290138 
L 335.67523 282.290138 
z
" clip-path="url(#p76f28cb784)" style="fill: #f77189; opacity: 0.7"/>
   </g>
   <g id="patch_22">
    <path d="M 343.206964 387.205 
L 350.738712 387.205 
L 350.738712 204.984803 
L 343.206964 204.984803 
z
" clip-path="url(#p76f28cb784)" style="fill: #f77189; opacity: 0.7"/>
   </g>
   <g id="patch_23">
    <path d="M 350.738712 387.205 
L 358.27046 387.205 
L 358.27046 210.506627 
L 350.738712 210.506627 
z
" clip-path="url(#p76f28cb784)" style="fill: #f77189; opacity: 0.7"/>
   </g>
   <g id="patch_24">
    <path d="M 358.27046 387.205 
L 365.802194 387.205 
L 365.802194 122.156927 
L 358.27046 122.156927 
z
" clip-path="url(#p76f28cb784)" style="fill: #f77189; opacity: 0.7"/>
   </g>
   <g id="patch_25">
    <path d="M 365.802194 387.205 
L 373.333942 387.205 
L 373.333942 199.462978 
L 365.802194 199.462978 
z
" clip-path="url(#p76f28cb784)" style="fill: #f77189; opacity: 0.7"/>
   </g>
   <g id="patch_26">
    <path d="M 373.333942 387.205 
L 380.865676 387.205 
L 380.865676 39.329405 
L 373.333942 39.329405 
z
" clip-path="url(#p76f28cb784)" style="fill: #f77189; opacity: 0.7"/>
   </g>
   <g id="patch_27">
    <path d="M 380.865676 387.205 
L 388.397424 387.205 
L 388.397424 144.244737 
L 380.865676 144.244737 
z
" clip-path="url(#p76f28cb784)" style="fill: #f77189; opacity: 0.7"/>
   </g>
   <g id="patch_28">
    <path d="M 388.397424 387.205 
L 395.929172 387.205 
L 395.929172 254.68122 
L 388.397424 254.68122 
z
" clip-path="url(#p76f28cb784)" style="fill: #f77189; opacity: 0.7"/>
   </g>
   <g id="patch_29">
    <path d="M 395.929172 387.205 
L 403.460906 387.205 
L 403.460906 293.333808 
L 395.929172 293.333808 
z
" clip-path="url(#p76f28cb784)" style="fill: #f77189; opacity: 0.7"/>
   </g>
   <g id="patch_30">
    <path d="M 403.460906 387.205 
L 410.992654 387.205 
L 410.992654 315.421286 
L 403.460906 315.421286 
z
" clip-path="url(#p76f28cb784)" style="fill: #f77189; opacity: 0.7"/>
   </g>
   <g id="patch_31">
    <path d="M 410.992654 387.205 
L 418.524388 387.205 
L 418.524388 337.508486 
L 410.992654 337.508486 
z
" clip-path="url(#p76f28cb784)" style="fill: #f77189; opacity: 0.7"/>
   </g>
   <g id="patch_32">
    <path d="M 418.524388 387.205 
L 426.056136 387.205 
L 426.056136 359.595879 
L 418.524388 359.595879 
z
" clip-path="url(#p76f28cb784)" style="fill: #f77189; opacity: 0.7"/>
   </g>
   <g id="line2d_23">
    <path d="M 87.127727 387.205 
L 165.837828 387.095002 
L 173.980253 386.848799 
L 179.408535 386.490447 
L 183.932104 385.974583 
L 187.55096 385.335278 
L 190.717458 384.531758 
L 193.431599 383.593294 
L 195.693384 382.582832 
L 197.955168 381.314769 
L 199.764596 380.079886 
L 201.574024 378.618578 
L 203.383451 376.902456 
L 205.192879 374.904307 
L 207.002306 372.599735 
L 208.811734 369.96904 
L 210.621162 366.999263 
L 212.882946 362.804886 
L 215.144731 358.091058 
L 217.858872 351.81774 
L 221.02537 343.841907 
L 229.620152 321.716385 
L 231.881936 316.688012 
L 233.691364 313.154903 
L 235.500791 310.144496 
L 236.857862 308.269468 
L 238.214933 306.74622 
L 239.572003 305.589262 
L 240.929074 304.806431 
L 241.833788 304.493171 
L 242.738502 304.345391 
L 243.643215 304.360389 
L 244.547929 304.534191 
L 245.905 305.080991 
L 247.262071 305.950937 
L 248.619141 307.116718 
L 249.976212 308.546718 
L 251.78564 310.803398 
L 254.047424 314.059534 
L 257.213923 319.100985 
L 262.189848 327.084285 
L 264.451633 330.356446 
L 266.713418 333.234422 
L 268.522845 335.19434 
L 270.332273 336.816192 
L 272.1417 338.081618 
L 273.498771 338.792212 
L 274.855842 339.29926 
L 276.212912 339.606945 
L 277.569983 339.722298 
L 278.927054 339.654868 
L 280.736481 339.301151 
L 282.545909 338.676048 
L 284.355337 337.815993 
L 286.617121 336.469347 
L 289.331263 334.554738 
L 292.950118 331.69262 
L 311.496751 316.324166 
L 314.663249 313.317289 
L 316.925034 310.895114 
L 319.186818 308.159543 
L 321.448603 305.032709 
L 323.710387 301.438732 
L 325.519815 298.180763 
L 327.781599 293.581854 
L 330.043384 288.360671 
L 332.305168 282.498656 
L 334.566953 276.003031 
L 337.281094 267.422421 
L 339.995236 258.09063 
L 343.614091 244.760358 
L 355.37537 200.425534 
L 358.089512 191.434757 
L 360.351296 184.699248 
L 362.160724 179.913778 
L 363.970152 175.746487 
L 365.327222 173.071462 
L 366.684293 170.816261 
L 368.041364 169.009749 
L 369.398434 167.67886 
L 370.303148 167.068021 
L 371.207862 166.685981 
L 372.112576 166.538523 
L 373.01729 166.630645 
L 373.922003 166.966472 
L 374.826717 167.549179 
L 375.731431 168.380917 
L 376.636145 169.462749 
L 377.993215 171.553912 
L 379.350286 174.201976 
L 380.707357 177.395356 
L 382.064428 181.116167 
L 383.873855 186.855213 
L 385.683283 193.415206 
L 387.945067 202.631553 
L 390.206852 212.785045 
L 393.37335 228.141208 
L 399.706347 260.481633 
L 403.777559 280.713639 
L 406.944057 295.4579 
L 409.658199 307.190069 
L 412.37234 317.99338 
L 415.086481 327.833356 
L 417.348266 335.298688 
L 419.610051 342.111693 
L 421.871835 348.29488 
L 424.13362 353.874875 
L 426.395404 358.880247 
L 428.657189 363.340328 
L 430.918973 367.284813 
L 433.180758 370.743875 
L 435.442542 373.748519 
L 437.704327 376.330956 
L 439.966111 378.524831 
L 442.227896 380.365184 
L 444.48968 381.888137 
L 446.751465 383.13033 
L 449.013249 384.128177 
L 451.727391 385.052715 
L 454.441532 385.733616 
L 457.60803 386.288854 
L 461.226886 386.693328 
L 465.750455 386.9732 
L 472.535808 387.143409 
L 486.106515 387.20241 
L 539.032273 387.205 
L 539.032273 387.205 
" clip-path="url(#p76f28cb784)" style="fill: none; stroke: #bb9832; stroke-width: 2; stroke-linecap: round"/>
   </g>
   <g id="patch_33">
    <path d="M 64.5325 387.205 
L 64.5325 21.935625 
" style="fill: none"/>
   </g>
   <g id="patch_34">
    <path d="M 561.6275 387.205 
L 561.6275 21.935625 
" style="fill: none"/>
   </g>
   <g id="patch_35">
    <path d="M 64.5325 387.205 
L 561.6275 387.205 
" style="fill: none"/>
   </g>
   <g id="patch_36">
    <path d="M 64.5325 21.935625 
L 561.6275 21.935625 
" style="fill: none"/>
   </g>
   <g id="text_14">
    <!-- Target Distribution (Yield kg/ha) -->
    <g style="fill: #262626" transform="translate(229.60875 15.935625) scale(0.12 -0.12)">
     <defs>
      <path id="ArialMT-54" d="M 1659 0 
L 1659 4041 
L 150 4041 
L 150 4581 
L 3781 4581 
L 3781 4041 
L 2266 4041 
L 2266 0 
L 1659 0 
z
" transform="scale(0.015625)"/>
      <path id="ArialMT-72" d="M 416 0 
L 416 3319 
L 922 3319 
L 922 2816 
Q 1116 3169 1280 3281 
Q 1444 3394 1641 3394 
Q 1925 3394 2219 3213 
L 2025 2691 
Q 1819 2813 1613 2813 
Q 1428 2813 1281 2702 
Q 1134 2591 1072 2394 
Q 978 2094 978 1738 
L 978 0 
L 416 0 
z
" transform="scale(0.015625)"/>
      <path id="ArialMT-62" d="M 941 0 
L 419 0 
L 419 4581 
L 981 4581 
L 981 2947 
Q 1338 3394 1891 3394 
Q 2197 3394 2470 3270 
Q 2744 3147 2920 2923 
Q 3097 2700 3197 2384 
Q 3297 2069 3297 1709 
Q 3297 856 2875 390 
Q 2453 -75 1863 -75 
Q 1275 -75 941 416 
L 941 0 
z
M 934 1684 
Q 934 1088 1097 822 
Q 1363 388 1816 388 
Q 2184 388 2453 708 
Q 2722 1028 2722 1663 
Q 2722 2313 2464 2622 
Q 2206 2931 1841 2931 
Q 1472 2931 1203 2611 
Q 934 2291 934 1684 
z
" transform="scale(0.015625)"/>
      <path id="ArialMT-75" d="M 2597 0 
L 2597 488 
Q 2209 -75 1544 -75 
Q 1250 -75 995 37 
Q 741 150 617 320 
Q 494 491 444 738 
Q 409 903 409 1263 
L 409 3319 
L 972 3319 
L 972 1478 
Q 972 1038 1006 884 
Q 1059 663 1231 536 
Q 1403 409 1656 409 
Q 1909 409 2131 539 
Q 2353 669 2445 892 
Q 2538 1116 2538 1541 
L 2538 3319 
L 3100 3319 
L 3100 0 
L 2597 0 
z
" transform="scale(0.015625)"/>
      <path id="ArialMT-6f" d="M 213 1659 
Q 213 2581 725 3025 
Q 1153 3394 1769 3394 
Q 2453 3394 2887 2945 
Q 3322 2497 3322 1706 
Q 3322 1066 3130 698 
Q 2938 331 2570 128 
Q 2203 -75 1769 -75 
Q 1072 -75 642 372 
Q 213 819 213 1659 
z
M 791 1659 
Q 791 1022 1069 705 
Q 1347 388 1769 388 
Q 2188 388 2466 706 
Q 2744 1025 2744 1678 
Q 2744 2294 2464 2611 
Q 2184 2928 1769 2928 
Q 1347 2928 1069 2612 
Q 791 2297 791 1659 
z
" transform="scale(0.015625)"/>
     </defs>
     <use xlink:href="#ArialMT-54"/>
     <use xlink:href="#ArialMT-61" x="49.958984"/>
     <use xlink:href="#ArialMT-72" x="105.574219"/>
     <use xlink:href="#ArialMT-67" x="138.875"/>
     <use xlink:href="#ArialMT-65" x="194.490234"/>
     <use xlink:href="#ArialMT-74" x="250.105469"/>
     <use xlink:href="#ArialMT-20" x="277.888672"/>
     <use xlink:href="#ArialMT-44" x="305.671875"/>
     <use xlink:href="#ArialMT-69" x="377.888672"/>
     <use xlink:href="#ArialMT-73" x="400.105469"/>
     <use xlink:href="#ArialMT-74" x="450.105469"/>
     <use xlink:href="#ArialMT-72" x="477.888672"/>
     <use xlink:href="#ArialMT-69" x="511.189453"/>
     <use xlink:href="#ArialMT-62" x="533.40625"/>
     <use xlink:href="#ArialMT-75" x="589.021484"/>
     <use xlink:href="#ArialMT-74" x="644.636719"/>
     <use xlink:href="#ArialMT-69" x="672.419922"/>
     <use xlink:href="#ArialMT-6f" x="694.636719"/>
     <use xlink:href="#ArialMT-6e" x="750.251953"/>
     <use xlink:href="#ArialMT-20" x="805.867188"/>
     <use xlink:href="#ArialMT-28" x="833.650391"/>
     <use xlink:href="#ArialMT-59" x="866.951172"/>
     <use xlink:href="#ArialMT-69" x="929.900391"/>
     <use xlink:href="#ArialMT-65" x="952.117188"/>
     <use xlink:href="#ArialMT-6c" x="1007.732422"/>
     <use xlink:href="#ArialMT-64" x="1029.949219"/>
     <use xlink:href="#ArialMT-20" x="1085.564453"/>
     <use xlink:href="#ArialMT-6b" x="1113.347656"/>
     <use xlink:href="#ArialMT-67" x="1163.347656"/>
     <use xlink:href="#ArialMT-2f" x="1218.962891"/>
     <use xlink:href="#ArialMT-68" x="1246.746094"/>
     <use xlink:href="#ArialMT-61" x="1302.361328"/>
     <use xlink:href="#ArialMT-29" x="1357.976562"/>
    </g>
   </g>
  </g>
 </g>
 <defs>
  <clipPath id="p76f28cb784">
   <rect x="64.5325" y="21.935625" width="497.095" height="365.269375"/>
  </clipPath>
 </defs>
</svg>
